<svg width="378" height="378" viewBox="0 0 378 378" xmlns="http://www.w3.org/2000/svg" xmlns:xlink="http://www.w3.org/1999/xlink">
    <defs>
        <linearGradient x1="52.561%" y1="63.964%" x2="31.471%" y2="-26.552%" id="ivdttfuelq">
            <stop stop-color="#E66090" offset="59.28%"/>
            <stop stop-color="#CC307F" offset="78.56%"/>
        </linearGradient>
        <linearGradient x1="40.445%" y1="1.819%" x2="52.499%" y2="62.882%" id="u5x601riir">
            <stop stop-color="#B60B71" offset=".045%"/>
            <stop stop-color="#CC317F" offset="100%"/>
        </linearGradient>
        <linearGradient x1="62.338%" y1="113.098%" x2="36.796%" y2="-13.718%" id="58d4tvqths">
            <stop stop-color="#E66090" offset="51.66%"/>
            <stop stop-color="#CC307F" offset="79.9%"/>
        </linearGradient>
        <linearGradient x1="49.103%" y1="100.099%" x2="52.173%" y2="3.012%" id="nvpe572wou">
            <stop stop-color="#FFF5FD" offset="27.62%"/>
            <stop stop-color="#D3AFC3" offset="100%"/>
        </linearGradient>
        <linearGradient x1="-.033%" y1="49.94%" x2="99.981%" y2="49.94%" id="6p188162iv">
            <stop stop-color="#D3AFC3" offset="0%"/>
            <stop stop-color="#FFF5FD" offset="54.39%"/>
            <stop stop-color="#D3AFC3" offset="100%"/>
        </linearGradient>
        <linearGradient x1="47.662%" y1="-1.787%" x2="53.495%" y2="101.559%" id="9opxvxeq2w">
            <stop stop-color="#E66090" offset="0%"/>
            <stop stop-color="#CC307F" offset="100%"/>
        </linearGradient>
        <linearGradient x1="49.051%" y1="-15.917%" x2="51.119%" y2="113.972%" id="tmqm87z3lx">
            <stop stop-color="#E66090" offset="0%"/>
            <stop stop-color="#CC307F" offset="100%"/>
        </linearGradient>
        <linearGradient x1="40.632%" y1="22.985%" x2="55.725%" y2="69.344%" id="q4oa8xbcly">
            <stop stop-color="#E66090" offset="0%"/>
            <stop stop-color="#CC307F" offset="100%"/>
        </linearGradient>
        <path d="m90.891 92.604-77.654 8.607a8.77 8.77 0 0 1-6.668-2.048A8.76 8.76 0 0 1 3.508 92.9L.004 12.982a3.22 3.22 0 0 1 2.81-3.348L79.585.026a3.209 3.209 0 0 1 3.555 2.566L98.54 82.213a8.744 8.744 0 0 1-1.538 6.878 8.755 8.755 0 0 1-6.112 3.513z" id="ish77nneoc"/>
        <path d="m26.098 21.165 81.286.02c8.504.01 15.397 6.902 15.406 15.406l.01 43.45c.01 8.507-6.884 15.405-15.39 15.407-.003 0-.006 0-.008-.007l-81.286-.02c-8.504-.01-15.397-6.902-15.406-15.406l-.01-43.45c-.01-8.507 6.884-15.405 15.39-15.407.003 0 .006 0 .008.007z" id="j7pmqsgq1e"/>
        <path d="M22.05 13.252a11.018 11.018 0 0 1-4.227 7.447 11.03 11.03 0 0 1-8.287 2.174C3.376 21.78-.795 15.986.128 9.8A10.913 10.913 0 0 1 19.933 4.67a11.783 11.783 0 0 1 2.118 8.582z" id="xpwrpmg5lg"/>
        <path d="M21.928 8.476a11 11 0 0 1-.842 8.528 11.012 11.012 0 0 1-6.705 5.34c-6.065 1.49-12.216-2.107-13.888-8.12a11 11 0 0 1 .848-8.52A11.012 11.012 0 0 1 8.04.37c2.88-.76 5.945-.335 8.51 1.18a11.815 11.815 0 0 1 5.377 6.927z" id="cdvs3rb5yi"/>
        <path d="M9.495 1.193s2.388 30.286-8.381 47.155a6.898 6.898 0 0 0-.28 7.045 6.906 6.906 0 0 0 6.056 3.615l80.863-3.849c5.712 0 10.268-1.141 6.828-5.708C87.24 39.663 84.146 16.74 85.88 0L9.495 1.193z" id="h47g4ox78k"/>
        <path id="0szmnoli4o" d="M42.524 0 0 41.126l340.459.41L312.067 0z"/>
        <rect id="tskfkwbf5a" x="0" y="0" width="378" height="378" rx="12"/>
        <rect id="5cyohayv2m" x="0" y="0" width="301.259" height="214.787" rx="15.402"/>
        <radialGradient cx="55.458%" cy="41.527%" fx="55.458%" fy="41.527%" r="87.543%" gradientTransform="matrix(.93076 0 0 1 .038 0)" id="znk0f5vv6t">
            <stop stop-color="#FCCFDA" offset="0%"/>
            <stop stop-color="#FACAD5" offset="23%"/>
            <stop stop-color="#F6BAC7" offset="52%"/>
            <stop stop-color="#EEA0B1" offset="84%"/>
            <stop stop-color="#E991A3" offset="100%"/>
        </radialGradient>
    </defs>
    <g fill="none" fill-rule="evenodd">
        <g>
            <mask id="qdegc3uu3b" fill="#fff">
                <use xlink:href="#tskfkwbf5a"/>
            </mask>
            <use fill="#FFF" xlink:href="#tskfkwbf5a"/>
            <g mask="url(#qdegc3uu3b)">
                <g transform="translate(-65 42)">
                    <ellipse fill="#1B1E23" fill-rule="nonzero" opacity=".02" cx="249.735" cy="337.642" rx="172.405" ry="20.358"/>
                    <path d="m206.201 21.076 26.094 73.003a4.885 4.885 0 0 1-1.155 5.131l-13.285 13.302-11.654-91.436z" fill="#2A85B7" fill-rule="nonzero"/>
                    <path d="M124.812 33.186a16.907 16.907 0 0 1 10.936-6.196l61.134-7.697a7.406 7.406 0 0 1 7.792 5.131l-79.862 8.762z" fill="#247591" fill-rule="nonzero"/>
                    <path d="m214.775 113.32-77.654 8.608a8.77 8.77 0 0 1-6.668-2.048 8.76 8.76 0 0 1-3.061-6.264l-3.504-79.917a3.22 3.22 0 0 1 2.81-3.348l76.769-9.608a3.209 3.209 0 0 1 3.555 2.565l15.403 79.622a8.744 8.744 0 0 1-1.538 6.877 8.755 8.755 0 0 1-6.112 3.514z" fill="#2E8CCC" fill-rule="nonzero"/>
                    <g transform="translate(123.884 20.717)">
                        <mask id="7ao3ynhqwd" fill="#fff">
                            <use xlink:href="#ish77nneoc"/>
                        </mask>
                        <g mask="url(#7ao3ynhqwd)">
                            <path fill="#1B566B" fill-rule="nonzero" d="M-28.322 43.747 107.373 29.16l.23 2.13-135.696 14.588zM-22.298 37.048l135.696-14.589.23 2.13L-22.07 39.178z"/>
                            <g opacity=".1">
                                <path d="M87.22.244c5.263-1.45-11.937-6.568-15.851-6.093h-.257a3.068 3.068 0 0 0-2.567 3.707l.937 4.259a80.776 80.776 0 0 1-13.203 64.534A80.872 80.872 0 0 1-.6 99.928a3.067 3.067 0 0 0-2.734 3.028 7.695 7.695 0 0 0 2.526 5.739 7.704 7.704 0 0 0 5.959 1.957l88.282-9.787a7.702 7.702 0 0 0 5.34-3.164 7.693 7.693 0 0 0 1.27-6.072L87.22.244z" fill="#FFF" fill-rule="nonzero" opacity=".4"/>
                            </g>
                        </g>
                    </g>
                    <path d="M148.621 42.768c-3.26-21.063-6.417-40.138 13.44-42.562 18.97-2.31 23.026 15.098 25.054 38.085" stroke="#212121" stroke-width="2.028" stroke-linecap="round" stroke-linejoin="round"/>
                    <path d="M151.65 45.244a2.748 2.748 0 1 1-5.367-.462 2.746 2.746 0 0 1 5.368.462zM190.157 40.78a2.746 2.746 0 1 1-5.464.578 2.746 2.746 0 0 1 5.464-.578z" fill="#1B566B" fill-rule="nonzero"/>
                    <path d="M388.798 76.708 316.1 113.075c-7.608 3.798-16.857.719-20.672-6.881l-19.458-38.85c-3.816-7.603-.738-16.857 6.868-20.666.002-.002.004-.003.01.003l72.697-36.367c7.608-3.798 16.858-.719 20.672 6.881l19.458 38.85c3.816 7.603.739 16.857-6.867 20.667-.003 0-.005.002-.01-.004z" fill="#2776B7" fill-rule="nonzero"/>
                    <g transform="translate(269.072 3.392)">
                        <mask id="vv9bg8j5vf" fill="#fff">
                            <use xlink:href="#j7pmqsgq1e" transform="rotate(153.41 66.75 58.303)"/>
                        </mask>
                        <g mask="url(#vv9bg8j5vf)">
                            <g transform="translate(-10.529 -3.814)" fill-rule="nonzero">
                                <path fill="#2A81BC" d="m8.561 78.685 125.787-59.007L118.086 0 0 50.464z"/>
                                <g font-family="Helvetica" font-size="6.636" fill="#FFF">
                                    <text transform="rotate(-27.332 172.993 -52.312)">
                                                <tspan x="0" y="6">XXX</tspan>
                                            </text>
                                    <text transform="rotate(-27.332 172.993 -52.312)">
                                                <tspan x="11.097" y="6">X</tspan>
                                            </text>
                                    <text transform="rotate(-27.332 172.993 -52.312)">
                                                <tspan x="16.305" y="6">XXX</tspan>
                                            </text>
                                    <text transform="rotate(-27.332 172.993 -52.312)">
                                                <tspan x="27.403" y="6">X</tspan>
                                            </text>
                                    <text transform="rotate(-27.332 172.993 -52.312)">
                                                <tspan x="32.611" y="6">XXX</tspan>
                                            </text>
                                    <text transform="rotate(-27.332 172.993 -52.312)">
                                                <tspan x="43.695" y="6">X</tspan>
                                            </text>
                                    <text transform="rotate(-27.332 172.993 -52.312)">
                                                <tspan x="48.903" y="6">XX</tspan>
                                            </text>
                                    <text transform="rotate(-27.332 172.993 -52.312)">
                                                <tspan x="56.297" y="6">X</tspan>
                                            </text>
                                </g>
                                <g font-family="Helvetica" font-size="3.851" fill="#FFF">
                                    <text transform="rotate(-30.174 168.781 -176.29)">
                                                <tspan x="0" y="4">V</tspan>
                                            </text>
                                    <text transform="rotate(-30.174 168.781 -176.29)">
                                                <tspan x="1.915" y="4">ALID</tspan>
                                            </text>
                                </g>
                                <g font-family="Helvetica" font-size="6.418" fill="#FFF">
                                    <text transform="rotate(-30.174 178.883 -165.088)">
                                                <tspan x="0" y="6">X</tspan>
                                            </text>
                                    <text transform="rotate(-30.174 178.883 -165.088)">
                                                <tspan x="3.55" y="6">X-</tspan>
                                            </text>
                                    <text transform="rotate(-30.174 178.883 -165.088)">
                                                <tspan x="8.887" y="6">X</tspan>
                                            </text>
                                    <text transform="rotate(-30.174 178.883 -165.088)">
                                                <tspan x="12.424" y="6">X</tspan>
                                            </text>
                                </g>
                                <ellipse fill="#2673A8" cx="85.74" cy="30.53" rx="5.301" ry="5.298"/>
                                <ellipse fill="#2776B7" cx="92.158" cy="27.002" rx="5.301" ry="5.298"/>
                            </g>
                        </g>
                    </g>
                    <path d="M229.882 30.851a13.62 13.62 0 0 1-4.978 9.342 13.637 13.637 0 0 1-10.168 2.96c-7.634-1.12-12.978-8.124-12.04-15.778a13.497 13.497 0 0 1 9.737-11.888 13.507 13.507 0 0 1 14.561 4.922 14.579 14.579 0 0 1 2.888 10.442z" fill="#FCAF15" fill-rule="nonzero"/>
                    <path d="M227.238 30.826a11.018 11.018 0 0 1-4.228 7.447 11.03 11.03 0 0 1-8.286 2.173c-6.161-1.091-10.332-6.887-9.409-13.071a10.913 10.913 0 0 1 19.805-5.131 11.783 11.783 0 0 1 2.118 8.582z" fill="#FECA57" fill-rule="nonzero"/>
                    <g transform="translate(205.187 17.574)">
                        <mask id="22ifbhirvh" fill="#fff">
                            <use xlink:href="#xpwrpmg5lg"/>
                        </mask>
                        <g mask="url(#22ifbhirvh)" fill-rule="nonzero">
                            <path d="M22.68 13.521c.44-3.138-.277-6.33-2.015-8.98.743 2.012.977 4.176.68 6.3a12.185 12.185 0 0 1-4.677 8.243 12.199 12.199 0 0 1-9.173 2.403 12.36 12.36 0 0 1-8.394-5.516 12.513 12.513 0 0 0 9.73 8.133c3.246.47 6.545-.388 9.151-2.38a12.185 12.185 0 0 0 4.698-8.203z" fill="#000" opacity=".02"/>
                            <path d="M-.976 15.381a12.687 12.687 0 0 0 5.43 7.26 12.826 12.826 0 0 1-3.17-5.451C-.725 10.593 2.93 3.606 9.497 1.489a11.917 11.917 0 0 1 9.832 1.385A12.032 12.032 0 0 0 7.239-.32C.668 1.791-2.991 8.783-.976 15.381z" fill="#FFF" opacity=".13"/>
                        </g>
                    </g>
                    <text fill="#FFF" fill-rule="nonzero" transform="rotate(12.828 216.843 28.81)" font-family="Helvetica" font-size="13.49">
                                <tspan x="213.117" y="33.809">$</tspan>
                            </text>
                    <path d="M312.337 34.379c1.373-1.078 5.018-.27 7.316 2.783 2.297 3.053 3.119 6.478.924 8.12" stroke="#212121" stroke-width=".642" stroke-linecap="round" stroke-linejoin="round"/>
                    <rect fill="#FECA57" fill-rule="nonzero" x="242.949" y="34.379" width="76.64" height="66.076" rx="2.131"/>
                    <path fill="#F9A40D" fill-rule="nonzero" opacity=".4" d="M280.3 51.106h1.925v56.121H280.3z"/>
                    <path fill="#FCAF15" fill-rule="nonzero" d="M270.558 34.379h21.409v29.658h-21.409zM330.55 46.77a1.937 1.937 0 0 0-.693-.987l-6.418-4.824a1.913 1.913 0 0 0-1.694-.307l-4.98 1.436a1.95 1.95 0 0 0-1.284 1.283l-2.502 7.697a2.038 2.038 0 0 0 0 1.141l4.672 16.06a1.926 1.926 0 0 0 2.387 1.283l14.055-4.079a1.924 1.924 0 0 0 1.283-2.399L330.55 46.77zm-9.626-.32a1.605 1.605 0 0 1-1.856-2.31 1.605 1.605 0 1 1 1.856 2.31z"/>
                    <path d="M320.77 45.539a3.313 3.313 0 0 1-2.657.616A5.777 5.777 0 0 1 315.7 45a17.526 17.526 0 0 1-3.453-3.848 15.866 15.866 0 0 1-1.386-2.194 4.18 4.18 0 0 1-.5-2.655 3.528 3.528 0 0 1 1.655-2.194 2.876 2.876 0 0 1 1.283-.423c.45.064.873 0 1.284.103a.205.205 0 0 1 .18.243.218.218 0 0 1-.219.193 3.609 3.609 0 0 0-1.283 0 3.21 3.21 0 0 0-1.065.372 2.976 2.976 0 0 0-1.284 1.77 3.564 3.564 0 0 0 .45 2.245c.365.737.794 1.441 1.283 2.104a16.68 16.68 0 0 0 3.324 3.707c.62.508 1.35.863 2.13 1.039a2.671 2.671 0 0 0 2.157-.5.321.321 0 0 1 .45.064.334.334 0 0 1 .064.513z" fill="#212121" fill-rule="nonzero"/>
                    <path d="M249.135 55.596a13.616 13.616 0 0 1-.762 10.556 13.63 13.63 0 0 1-8.094 6.825c-7.433 2.067-15.156-2.177-17.392-9.556a13.477 13.477 0 0 1 4.07-14.817 13.496 13.496 0 0 1 15.311-1.385 14.536 14.536 0 0 1 6.867 8.377z" fill="#FCAF15" fill-rule="nonzero"/>
                    <path d="M246.67 56.596a11 11 0 0 1-.84 8.528 11.012 11.012 0 0 1-6.706 5.34c-6.065 1.49-12.216-2.107-13.888-8.12a11 11 0 0 1 .847-8.52 11.012 11.012 0 0 1 6.7-5.335c2.88-.76 5.946-.336 8.51 1.18a11.815 11.815 0 0 1 5.378 6.927z" fill="#FECA57" fill-rule="nonzero"/>
                    <g transform="translate(224.743 48.12)">
                        <mask id="5a06tqlbfj" fill="#fff">
                            <use xlink:href="#cdvs3rb5yi"/>
                        </mask>
                        <g mask="url(#5a06tqlbfj)" fill-rule="nonzero">
                            <path d="M22.608 8.476a13.008 13.008 0 0 0-5.455-7.337 13.006 13.006 0 0 1 3.184 5.477 12.18 12.18 0 0 1-.91 9.463 12.192 12.192 0 0 1-7.433 5.93 12.38 12.38 0 0 1-9.922-1.641 12.507 12.507 0 0 0 12.193 3.489 12.18 12.18 0 0 0 7.433-5.923 12.167 12.167 0 0 0 .91-9.458z" fill="#000" opacity=".02"/>
                            <path d="M1.738 19.752a12.747 12.747 0 0 0 7.907 4.438 12.835 12.835 0 0 1-5.134-3.707C-.001 15.265.514 7.394 5.666 2.807A11.865 11.865 0 0 1 15.216.1c-4.16-1.7-8.922-.944-12.348 1.963-5.146 4.599-5.649 12.473-1.13 17.689z" fill="#FFF" opacity=".13"/>
                        </g>
                    </g>
                    <text fill="#FFF" fill-rule="nonzero" transform="rotate(-17.458 235.153 59.372)" font-family="Helvetica" font-size="13.49">
                                <tspan x="231.413" y="64.372">$</tspan>
                            </text>
                    <path d="M217.624 283.198s2.388 30.286-8.381 47.155a6.898 6.898 0 0 0-.28 7.045 6.906 6.906 0 0 0 6.056 3.615l80.863-3.849c5.712 0 10.268-1.141 6.828-5.708-7.342-9.787-10.435-32.71-8.702-49.45l-76.384 1.192z" fill="#D7D7D7" fill-rule="nonzero"/>
                    <g transform="translate(208.129 282.005)">
                        <mask id="9tn0cenksl" fill="#fff">
                            <use xlink:href="#h47g4ox78k"/>
                        </mask>
                        <path fill="#D2D2D2" fill-rule="nonzero" mask="url(#9tn0cenksl)" d="M6.12 6.645h98.229v15.496H6.12z"/>
                    </g>
                    <rect fill="#D7D7D7" fill-rule="nonzero" x="105.379" y="83.817" width="301.259" height="214.787" rx="15.402"/>
                    <g transform="translate(105.379 83.817)">
                        <mask id="agh5qlw2fn" fill="#fff">
                            <use xlink:href="#5cyohayv2m"/>
                        </mask>
                        <path fill="#A50064" fill-rule="nonzero" mask="url(#agh5qlw2fn)" d="M-19.253-54.223h337.571v231.669H-19.253z"/>
                    </g>
                    <path fill="#FCFFFF" fill-rule="nonzero" d="M122.065 97.927h269.543v150.084H122.065z"/>
                    <ellipse fill="#54A0FF" fill-rule="nonzero" cx="134.361" cy="122.518" rx="5.134" ry="5.131"/>
                    <text fill="#FCFFFF" fill-rule="nonzero" font-family="Helvetica" font-size="6.289">
                                <tspan x="132.949" y="124.078">$</tspan>
                            </text>
                    <g transform="translate(133.95 168.412)" fill="#EFEFEF" fill-rule="nonzero">
                        <rect width="35.554" height="35.533" rx="2.683"/>
                        <path d="M31.151 40.176H4.57a.744.744 0 1 1 0-1.488h26.582a.744.744 0 1 1 0 1.488zM30.792 49.271H4.698A3.426 3.426 0 0 1 1.27 45.86a3.439 3.439 0 0 1 3.427-3.425h26.094a3.439 3.439 0 0 1 3.427 3.425 3.426 3.426 0 0 1-3.427 3.412z"/>
                        <rect x="53.164" width="35.554" height="35.533" rx="2.683"/>
                        <path d="M84.38 40.176H57.734a.757.757 0 0 1-.758-.744.757.757 0 0 1 .758-.744H84.38a.744.744 0 0 1 0 1.488zM83.956 49.271H57.85a3.426 3.426 0 0 1-3.414-3.412 3.426 3.426 0 0 1 3.414-3.425h26.107a3.426 3.426 0 0 1 3.414 3.425 3.426 3.426 0 0 1-3.414 3.412z"/>
                        <rect x="106.957" width="35.554" height="35.533" rx="2.683"/>
                        <path d="M138.109 40.176h-26.582a.744.744 0 1 1 0-1.488h26.582a.744.744 0 0 1 0 1.488zM137.75 49.271h-26.095a3.426 3.426 0 0 1-3.427-3.412 3.439 3.439 0 0 1 3.427-3.425h26.094a3.439 3.439 0 0 1 3.427 3.425 3.426 3.426 0 0 1-3.427 3.412z"/>
                        <rect x="160.121" width="35.554" height="35.533" rx="2.683"/>
                        <path d="M191.273 40.176H164.69a.745.745 0 0 1-.745-.744.744.744 0 0 1 .745-.744h26.582a.744.744 0 1 1 0 1.488zM190.914 49.271h-26.095a3.426 3.426 0 0 1-3.427-3.412 3.439 3.439 0 0 1 3.427-3.425h26.095a3.439 3.439 0 0 1 3.427 3.425 3.426 3.426 0 0 1-3.427 3.412z"/>
                        <rect x="209.756" width="35.554" height="35.533" rx="2.683"/>
                        <path d="M240.972 40.176h-26.647a.757.757 0 0 1-.757-.744.757.757 0 0 1 .757-.744h26.647a.744.744 0 0 1 0 1.488zM240.548 49.271h-26.107a3.426 3.426 0 0 1-3.414-3.412 3.426 3.426 0 0 1 3.414-3.425h26.107a3.426 3.426 0 0 1 3.414 3.425 3.426 3.426 0 0 1-3.414 3.412z"/>
                    </g>
                    <ellipse fill="#54A0FF" fill-rule="nonzero" cx="187.525" cy="122.518" rx="5.134" ry="5.131"/>
                    <text fill="#FCFFFF" fill-rule="nonzero" font-family="Helvetica" font-size="6.289">
                                <tspan x="186.114" y="124.078">$</tspan>
                            </text>
                    <ellipse fill="#54A0FF" fill-rule="nonzero" cx="241.331" cy="122.518" rx="5.134" ry="5.131"/>
                    <text fill="#FCFFFF" fill-rule="nonzero" font-family="Helvetica" font-size="6.289">
                                <tspan x="239.907" y="124.078">$</tspan>
                            </text>
                    <ellipse fill="#54A0FF" fill-rule="nonzero" cx="294.483" cy="122.518" rx="5.134" ry="5.131"/>
                    <text fill="#FCFFFF" fill-rule="nonzero" font-family="Helvetica" font-size="6.289">
                                <tspan x="293.071" y="124.078">$</tspan>
                            </text>
                    <ellipse fill="#54A0FF" fill-rule="nonzero" cx="344.117" cy="122.518" rx="5.134" ry="5.131"/>
                    <text fill="#FCFFFF" fill-rule="nonzero" font-family="Helvetica" font-size="6.289">
                                <tspan x="342.705" y="124.078">$</tspan>
                            </text>
                    <ellipse fill="#FFFFFD" fill-rule="nonzero" opacity=".3" cx="256.002" cy="280.081" rx="9.627" ry="9.621"/>
                    <path fill="#C1177C" fill-rule="nonzero" d="m122.065 97.927-42.524 41.126 340.459.41-28.392-41.536z"/>
                    <g transform="translate(79.541 97.927)">
                        <mask id="7h1pkj373p" fill="#fff">
                            <use xlink:href="#0szmnoli4o"/>
                        </mask>
                        <g mask="url(#7h1pkj373p)" fill="#EB2F96" fill-rule="nonzero">
                            <path d="M25.76 41.587 59.519-.91l19.92.693-27.48 41.805zM77.975 41.587l19.78-43.87 19.689 1.372-13.26 42.498zM131.113 41.587l10.153-43.421 19.24.461-3.183 42.96zM209.756 41.139 199.603-2.283l-19.24.449 3.183 42.973zM313.966 41.139 284.65-1.834l-19.702-.45 22.809 43.423zM261.74 41.139 241.972-2.745 222.27-1.373l13.272 42.512z"/>
                        </g>
                    </g>
                    <path d="M105.88 139.053c0 7.269-5.896 13.161-13.17 13.161-7.273 0-13.169-5.892-13.169-13.161h26.339z" fill="#B81676" fill-rule="nonzero"/>
                    <path d="M132.09 139.053c-.223 7.112-6.056 12.763-13.176 12.763s-12.953-5.65-13.176-12.763h26.351z" fill="#D62B89" fill-rule="nonzero"/>
                    <path d="M158.286 139.053c0 7.269-5.896 13.161-13.169 13.161-7.273 0-13.169-5.892-13.169-13.161h26.338z" fill="#B81676" fill-rule="nonzero"/>
                    <path d="M184.496 139.053c-.222 7.112-6.055 12.763-13.175 12.763-7.12 0-12.954-5.65-13.176-12.763h26.351z" fill="#D62B89" fill-rule="nonzero"/>
                    <path d="M210.693 139.053c0 7.269-5.896 13.161-13.169 13.161-7.273 0-13.169-5.892-13.169-13.161h26.338z" fill="#B81676" fill-rule="nonzero"/>
                    <path d="M236.903 139.053c-.222 7.112-6.055 12.763-13.175 12.763-7.12 0-12.954-5.65-13.176-12.763h26.351z" fill="#D62B89" fill-rule="nonzero"/>
                    <path d="M263.1 139.053a13.16 13.16 0 0 1-6.584 11.398 13.176 13.176 0 0 1-13.17 0 13.16 13.16 0 0 1-6.584-11.398H263.1z" fill="#B81676" fill-rule="nonzero"/>
                    <path d="M289.31 139.053c-.222 7.112-6.055 12.763-13.175 12.763-7.12 0-12.954-5.65-13.176-12.763h26.351z" fill="#D62B89" fill-rule="nonzero"/>
                    <path d="M315.52 139.053c-.222 7.112-6.056 12.763-13.176 12.763s-12.953-5.65-13.175-12.763h26.35z" fill="#B81676" fill-rule="nonzero"/>
                    <path d="M341.717 139.053c-.222 7.112-6.055 12.763-13.176 12.763-7.12 0-12.953-5.65-13.175-12.763h26.351z" fill="#D62B89" fill-rule="nonzero"/>
                    <path d="M367.593 139.464c-.222 7.112-6.055 12.763-13.175 12.763-7.12 0-12.954-5.651-13.176-12.763h26.351z" fill="#B81676" fill-rule="nonzero"/>
                    <path d="M393.79 139.464c0 7.268-5.896 13.16-13.169 13.16-7.273 0-13.17-5.892-13.17-13.16h26.34z" fill="#D62B89" fill-rule="nonzero"/>
                    <path d="M420 139.464c-.222 7.112-6.055 12.763-13.176 12.763-7.12 0-12.953-5.651-13.175-12.763H420z" fill="#B81676" fill-rule="nonzero"/>
                    <path d="M102.491 338.678a2.681 2.681 0 0 1-4.58 1.896 2.68 2.68 0 0 1 1.897-4.577c1.482 0 2.683 1.2 2.683 2.681z" fill="#000" fill-rule="nonzero" opacity=".2"/>
                </g>
            </g>
        </g>
        <g transform="matrix(-1 0 0 1 366 221)">
            <path d="M15.638 20.75S36.63 4.233 76.615 11.537c0 0 21.5 5.688 31.215 39.995 0 0 14.564 42.067-22.135 57.876 0 0-43.89 20.116-68.205-2.835 0 0-26.457-23.114-14.291-64.308-.018 0 .018-5.306 12.439-21.515z" fill="url(#ivdttfuelq)" fill-rule="nonzero"/>
            <path d="M2.604 44.571s-13.839 43.481 22.29 68.175c0 0 28.84 14.566 68.143-6.957.508-.87 26.173-14.548 14.692-53.844 0 0-4.97-21.487-20.514-33.825 0 0-6.239-2.228-18.917 6.305 0 0-13.621 9.167-30.435 4.747 0 0-20.912-8.226-28.53 2.844.036 0-5.623 8.062-6.73 12.555z" fill="url(#u5x601riir)" fill-rule="nonzero"/>
            <path d="M106.974 89.7c4.123-12.979-1.562-29.61-2.688-32.646-5.558-21.89-17.327-26.066-17.327-26.066-7.937-2.53-18.725 5.748-18.725 5.748-8.246 8.28-21.577 4.682-21.577 4.682-3.814-.94-14.912-4.429-14.912-4.429C14.6 34.46 10.26 51.505 10.26 51.505c-6.357 43.582 11.878 58.314 11.878 58.314 11.189 9.942 39.413 6.38 39.413 6.38 21.867-2.91 33.219-10.411 39.122-16.684 3.105-2.693 5.085-6.073 6.266-9.761.018 0 .018-.018.036-.054 0 .018 0 .018 0 0z" fill="url(#58d4tvqths)" fill-rule="nonzero"/>
            <path d="M59.175 42.049s4.42-.91 11.417-6.55c0 0 9.554-6.257 15.948 3.275 0 0 9.9 15.172 13.718 40.967 0 0 1.919 22.921-28.734 28.324 0 0-25.904 4.894-34.472 3.184 0 0-25.866-2.856-19.783-52.446 0 0 1.278-15.9 10.85-18.755 0 0 4.878-2.038 16.752 1.528 0-.018 9.317 2.62 14.304.473z" fill="url(#znk0f5vv6t)" fill-rule="nonzero"/>
            <path d="M29.713 50.597s1.027-3.237 2.674-3.655c1.647-.418 8.872 1.305 8.872 1.305.496.766.407 1.637 0 2.35H29.713zM69.273 46.133c-.204-.548-.297-1.297 0-2.466l7.14-3.307s3.254-1.26 4.556 2.886l-11.696 2.887z" fill="#302E2B" fill-rule="nonzero"/>
            <path d="M6.99 9.673s-4.228 3.78-4.01 12.365v20.374s6.497-15.838 16.334-16.108L6.99 9.673z" fill="#FFF" fill-rule="nonzero"/>
            <path d="M7.563 9.673s-1.816 1.987-2.348 3.39c-.532 1.403 12.786 13.724 12.786 13.724s1.21-.292 2-.274c1.027 0-12.438-16.84-12.438-16.84zM76.512 19.566V4.456s.478-5.03 4.655-4.402c0 0 16.433 24.47 17.63 30.453 0 0-6.478-18.47-22.285-10.941z" fill="#F9C7DC" fill-rule="nonzero"/>
            <path d="m2.973 22.322 3.235-6.784s2.144-1.177 4.934-.625l-4.084-5.24s-4.195 3.254-4.085 12.65z" fill="#892E60" fill-rule="nonzero"/>
            <path d="M52.741 70.308c0 7.187-5.306 12.592-13 13.014-6.573.35-13-5.827-13-13.014 0-7.187 5.821-13.014 13-13.014 7.18 0 13 5.827 13 13.014z" fill="#FFF" fill-rule="nonzero"/>
            <path d="M51.255 71.055c0 3.482-2.568 6.125-6.314 6.321-3.192.179-6.314-2.82-6.314-6.32 0-3.482 2.818-6.321 6.314-6.321a6.306 6.306 0 0 1 6.314 6.32z" fill="#883F77" fill-rule="nonzero"/>
            <path d="M87.654 64.355c0 7.188-4.848 12.592-11.885 13.015-6.006.349-11.886-5.827-11.886-13.015 0-7.187 5.319-13.014 11.886-13.014 6.567.019 11.885 5.846 11.885 13.014z" fill="#FFF" fill-rule="nonzero"/>
            <path d="M78.74 66.591c0 3.482-2.58 6.124-6.314 6.32-3.193.18-6.314-2.82-6.314-6.32a6.315 6.315 0 1 1 12.628 0z" fill="#883F77" fill-rule="nonzero"/>
            <path d="M47.541 89.642s19.804.035 27.484-5.561c0 0 .311 12.981-11.026 15.16 0-.018-13.258 3.701-16.458-9.6z" fill="#4B222B" fill-rule="nonzero"/>
            <path d="M47.543 88.798c-.201-.052 19.492-.035 27.483-5.462a19.38 19.38 0 0 1-.53 4.262s-10.551 5.618-26.258 3.409a11.675 11.675 0 0 1-.695-2.21z" fill="#FFEAF0" fill-rule="nonzero"/>
            <path d="M22.285 54.318h29.713v21.578H22.285z"/>
            <path d="M80.79 111.611s18.964 13.73 10.738 40.952L89.848 157H40.113s-.235-25.755 7.81-39.538c.018-.019 16.758 1.159 32.866-5.85z" fill="url(#nvpe572wou)" fill-rule="nonzero"/>
            <path d="M27.455 75.152h-1.326l-2.358-1.408s.294-1.192 1.031-1.48c.737-.29 1.474-4.062 1.769-5.578.294-1.516 3.242-8.898 12.71-9.332 0 0 8.566-1.137 11.974 6.444 0 0-3.702-7.184-13.742-5 0 0-9.45 1.3-10.353 10.866 0-.018-.442 3.304.295 5.488z" fill="#4B222B" fill-rule="nonzero"/>
            <path d="m81.041 0-.815 18.232s5.708-.378 7.34.63c1.63 1.008 9.377 8.693 11.23 11.645 0 0-5.615-14.309-17.755-30.507z" fill="#FFF" fill-rule="nonzero"/>
            <path d="M96.768 102.682s-.034 9.46-3.171 10.418l4.996-.32c-.017 0 1.125-4.654-1.825-10.098zM31.397 114.588s-5.995 3.12-6.14 7.937c0 0 .799 6.886 2.924 11.409 0 0 4.688-8.381 9.448-9.249 0 0 1.871-1.735 6.922 2.345 0 0 11.192 2.16 9.502-4.08l-2.108-5.704c-.018 0-13.135.812-20.548-2.658z" fill="#EFDBE8" fill-rule="nonzero"/>
            <path d="M76.512 6.23c0-1.87 3.894-2.434 3.894-2.434l9.477 8.853C86.84 7.817 83.91 3.496 81.203.057c0 0-4.691-.882-4.691 4.32V6.23z" fill="#892E60" fill-rule="nonzero"/>
            <path d="M64.626 61.3s1.61-9.885 12.43-9.958c0 0 6.912-.218 10.332 6.596 0 0 2.66 4.415 3.98 4.56l-1.81 2.98s-.632-.454-1.465 0c0 0 .417-8.03-6.151-11.465 0 0-7.4-3.361-12.575.418 0 0-3.275 2.108-4.74 6.868z" fill="#4B222B" fill-rule="nonzero"/>
            <g fill-rule="nonzero">
                <path d="m94.361 112.91 8.68-1.375s2.134-2.338 4.473-.709c0 0 3.043 1.647 4.078 1.208l17.469-2.749s2.727 1.403-1.268 3.394l-3.768 1.68s4.607 9.783-4.575 10.54c0 0-2.586-.397-1.858-2.66 0 0-2.58 1.272-4.186.664 0 0-4.345 3.036-5.367 2.978 0 0-3.115-.806-6.783-.005l-10.785 3.277s-1.35-6.881-3.716-8.213c.02.015-3.984-3.49 7.606-8.03z" fill="#FCF0F9"/>
                <path d="m101.782 111.734 2.473 15.609s2.377.706 3.804-1.447l-2.711-15.607s-1.534-.73-3.826-.202l.26 1.647z" fill="#C40A6C"/>
                <path d="M38.285 7.757s-.91.2-3.584-.58c0 0-.018.145.037.326l.182 2.03c.309 1.686-.237 2.465-.346 2.592-.455.254-.873.326-1.22.217-.545-.18-.818-.797-.836-.833-1.383-2.393-2.056-2.7-2.42-2.7h-.036a.508.508 0 0 0-.437.29c-.109.253-.982.942-1.764 1.45.29-.182 1.855-.218 2.037-.708 0 0 .728-.507 2.147 1.903.018.036.346.852 1.128 1.106.164.054.346.09.528.09.363 0 .764-.127 1.182-.362l.055-.036c.036-.037.91-.925.51-3.136l-.547-1.63c.31.326 1.146.58 3.384-.019z" fill="url(#6p188162iv)" transform="rotate(-9 758.393 -483.772)"/>
            </g>
            <path d="M61.368 121.625s-3.78 4.377-.792 11.12c0 0 3.456 5.327 4.248 12.537 0 0-.432 4.86 11.032 5.021 0 0 13.498-.161 14.758-4.07 0 0 5.04-9.632 0-20.483 0 0-3.653-9.666-12.598-9.666 0-.018-7.487-.323-16.648 5.541z" fill="#C40A6C" fill-rule="nonzero"/>
            <path d="M86.262 119.052c-.732 0 14.469-4.199 10.335-15.625 0 0-12.054 7.387-16.371 8.167 0 0 6.585 5.722 6.036 7.458z" fill="url(#9opxvxeq2w)" fill-rule="nonzero"/>
            <ellipse fill="#232828" fill-rule="nonzero" cx="44.941" cy="70.687" rx="4.086" ry="3.72"/>
            <ellipse fill="#232828" fill-rule="nonzero" cx="71.683" cy="66.967" rx="4.086" ry="3.72"/>
            <ellipse fill="#FFF" fill-rule="nonzero" cx="42.713" cy="68.827" rx="1.114" ry="1.116"/>
            <ellipse fill="#FFF" fill-rule="nonzero" cx="70.198" cy="65.107" rx="1.114" ry="1.116"/>
            <path d="M97.31 103.427s3.493 4.368 2.906 8.928h-1.41c-.018 0 .805-1.631-1.495-8.928z" fill="url(#tmqm87z3lx)" fill-rule="nonzero"/>
            <path d="M27.945 134.642s-3.699 9.264 9.88 16.83c0 0 6.49 2.835 9.355 2.528 0 0 11.223-2.817 6.727-10.094 0 0-2.285-1.697-4.605-1.914 0 0-2.956.217-2.956-4.208l-.217-3.99s5.457-3.323 5.457-6.393c-.036 0-16.68-10.636-23.641 7.241z" fill="#FFF" fill-rule="nonzero"/>
            <path d="M27.805 134.253s3.91-7.295 15.57-3.868c0 0 4.057 1.915 4.166 3.868l-.564 3.224s-6.985-8.584-16.098 0c0 0-2.329 3.481-1.747 4.641-.036 0-2.51-4.347-1.327-7.865z" fill="#C40A6C" fill-rule="nonzero"/>
            <path d="m53.968 123.523-2.243-5.882s-15.207.163-20.686-2.31c0 0-6.344 1.913-6.326 6.622-.349 2.725-.661 7.506 2.942 11.98 0 0-3.971-11.456 1.729-13.946 1.011-.235 2.096-.145 3.163.577l6.84 4.006 4.983 2.94c-.019.019 11.73 1.588 9.598-3.987z" fill="url(#q4oa8xbcly)" fill-rule="nonzero"/>
            <g fill="#FFF" fill-rule="nonzero">
                <path d="m76.872 131.4 3.03-.417-3.03-6.392s-.36-1.598 1.082-.98l3.822 7.154 2.85-.763-3.138-6.81s-.541-1.525 1.118-1.053l3.696 7.5 2.795-.563-3.138-7.427s-3.317-5.103-7.59-.908c0 0-5.085-1.271-5.013 3.16 0 0 .27 1.888 1.118 2.869l2.398 4.63zM78.947 144.615l3.114-.775-1.396-5.585s-.549-1.38.742-1.495c0 0 .525-.205.85.95l1.585 5.669 3.149-.784-1.665-6.66s.09-1.276 1.286-.507l.514 1.388 1.447 5.124 2.826-.74-1.712-6.181s-1.332-3.692-5.285-2.485c0 0-1.58.45-2.141 1.843 0 0-4.368-.823-5.089 3.062l1.793 7.171-.018.005zM72.191 126.941c-1.46-3.141-4.471-4.848-6.707-3.795-2.74 1.217-2.885 4.467-1.424 7.609 1.46 3.16 4.922 4.94 7.176 3.886 2.254-1.053 3.065-3.323.955-7.7zm-2.776 4.395c-.667.073-2.146-.254-2.975-1.653-.776-1.307-.361-2.887.649-3.359.991-.472 2.326.272 2.975 1.653 1.01 1.743.45 3.214-.65 3.359zM70.275 136.109s-2.724.945-1.952 6.135c0 0 1.586 6.548 6.36 4.942 0 0 2.839-1.01 2.038-5.838.018-.004-1.55-6.798-6.446-5.24zm3.587 8.322c-.982.395-2.238-.396-2.798-1.777-.559-1.38-.229-2.835.767-3.252.982-.394 2.238.397 2.797 1.777.564 1.398.23 2.836-.766 3.252z"/>
            </g>
        </g>
    </g>
</svg>
